<?xml version="1.0" encoding="utf-8"?>
<!-- Generator: Adobe Illustrator 21.1.0, SVG Export Plug-In . SVG Version: 6.00 Build 0)  -->
<!DOCTYPE svg PUBLIC "-//W3C//DTD SVG 1.1//EN" "http://www.w3.org/Graphics/SVG/1.1/DTD/svg11.dtd" [
	<!ENTITY ns_extend "http://ns.adobe.com/Extensibility/1.0/">
	<!ENTITY ns_ai "http://ns.adobe.com/AdobeIllustrator/10.0/">
	<!ENTITY ns_graphs "http://ns.adobe.com/Graphs/1.0/">
	<!ENTITY ns_vars "http://ns.adobe.com/Variables/1.0/">
	<!ENTITY ns_imrep "http://ns.adobe.com/ImageReplacement/1.0/">
	<!ENTITY ns_sfw "http://ns.adobe.com/SaveForWeb/1.0/">
	<!ENTITY ns_custom "http://ns.adobe.com/GenericCustomNamespace/1.0/">
	<!ENTITY ns_adobe_xpath "http://ns.adobe.com/XPath/1.0/">
]>
<svg version="1.1" id="Layer_1" xmlns:x="&ns_extend;" xmlns:i="&ns_ai;" xmlns:graph="&ns_graphs;"
	 xmlns="http://www.w3.org/2000/svg" xmlns:xlink="http://www.w3.org/1999/xlink" x="0px" y="0px" viewBox="0 0 100 100"
	 style="enable-background:new 0 0 100 100;" xml:space="preserve">
<style type="text/css">
	.st0{opacity:0.851;}
	.st1{fill:none;stroke:#0DF9FF;stroke-width:2;stroke-miterlimit:10;}
	.st2{fill-rule:evenodd;clip-rule:evenodd;fill:#FFFFFF;}
</style>
<switch>
	<g i:extraneous="self">
		<g id="button_2_" class="st0">
			<g>
				<ellipse class="st1" cx="49.3" cy="49.6" rx="46" ry="46"/>
			</g>
		</g>
		<g id="pause_2_">
			<g>
				<path class="st2" d="M43.1,29.8h-5.6c-1.6,0-2.8,1.2-2.8,2.8v33.2c0,1.5,1.3,2.8,2.8,2.8h5.6c1.6,0,2.8-1.2,2.8-2.8V32.5
					C45.9,31,44.6,29.8,43.1,29.8z M60,29.8h-5.6c-1.6,0-2.8,1.2-2.8,2.8v33.2c0,1.5,1.3,2.8,2.8,2.8H60c1.6,0,2.8-1.2,2.8-2.8V32.5
					C62.8,31,61.6,29.8,60,29.8z"/>
			</g>
		</g>
	</g>
</switch>
</svg>
